<?xml version="1.0" encoding="utf-8"?>
<!-- Generator: Adobe Illustrator 13.0.0, SVG Export Plug-In  -->
<!DOCTYPE svg PUBLIC "-//W3C//DTD SVG 1.1//EN" "http://www.w3.org/Graphics/SVG/1.1/DTD/svg11.dtd" [
	<!ENTITY ns_flows "http://ns.adobe.com/Flows/1.0/">
]>
<svg version="1.1"
	 xmlns="http://www.w3.org/2000/svg" xmlns:xlink="http://www.w3.org/1999/xlink" xmlns:a="http://ns.adobe.com/AdobeSVGViewerExtensions/3.0/"
	 x="0px" y="0px" width="821px" height="757px" viewBox="0 0 821 757" style="enable-background:new 0 0 821 757;"
	 xml:space="preserve">
<defs>
</defs>
<path style="fill-rule:evenodd;clip-rule:evenodd;fill:#272536;" d="M457.5,371.5c0,0-174.2-105.7-224-137.7
	c-49.8-32-67.2,42.7-46.9,55.5c20.2,12.8,272.6,173,272.6,173l348-226.1c6.7-2.1,12-5.9,12-5.9v-1.9l1.4-0.9l-1.4-1.5V94.3
	c0-52-42.3-94.3-94.2-94.3H94.3C42.3,0,0,42.3,0,94.3v568c0,51.9,42.3,94.2,94.3,94.2h627.9c52,0,94.2-42.3,94.2-94.2v-97.1
	c0-17.4-14-31.4-31.4-31.4c-17.4,0-31.4,14-31.4,31.4v97.1c0,17.3-14.1,31.3-31.4,31.3H94.3c-17.4,0-31.4-14-31.4-31.3v-568
	C62.8,77,77,62.9,94.3,62.9H725c17.4,0,31.4,14.1,31.4,31.4v79.7L457.5,371.5L457.5,371.5z"/>
</svg>
