<?xml version="1.0" encoding="utf-8"?>
<!-- Generator: Adobe Illustrator 13.0.0, SVG Export Plug-In  -->
<!DOCTYPE svg PUBLIC "-//W3C//DTD SVG 1.1//EN" "http://www.w3.org/Graphics/SVG/1.1/DTD/svg11.dtd" [
	<!ENTITY ns_flows "http://ns.adobe.com/Flows/1.0/">
]>
<svg version="1.1"
	 xmlns="http://www.w3.org/2000/svg" xmlns:xlink="http://www.w3.org/1999/xlink" xmlns:a="http://ns.adobe.com/AdobeSVGViewerExtensions/3.0/"
	 x="0px" y="0px" width="91px" height="94px" viewBox="-1 -0.7 91 94" style="enable-background:new -1 -0.7 91 94;"
	 xml:space="preserve">
<defs>
</defs>
<g>
	<defs>
		<rect id="SVGID_1_" x="0" width="90" height="93.3"/>
	</defs>
	<clipPath id="SVGID_2_">
		<use xlink:href="#SVGID_1_"  style="overflow:visible;"/>
	</clipPath>
	<path style="clip-path:url(#SVGID_2_);fill:#5C524C;" d="M87.4,78.2L72.1,62.9c4.7-6.5,7.5-14.4,7.5-23.1C79.6,17.9,61.8,0,39.8,0
		C17.9,0,0,17.9,0,39.8c0,21.9,17.9,39.8,39.8,39.8c6.9,0,13.3-1.9,19-5l16.1,16.1c3.5,3.5,9.1,3.5,12.5,0
		C90.8,87.2,90.8,81.7,87.4,78.2 M13.3,39.8c0-14.6,11.9-26.5,26.5-26.5c14.6,0,26.5,11.9,26.5,26.5c0,14.6-11.9,26.5-26.5,26.5
		C25.2,66.3,13.3,54.5,13.3,39.8"/>
</g>
</svg>
