<?xml version="1.0" encoding="utf-8"?>
<!-- Generator: Adobe Illustrator 13.0.0, SVG Export Plug-In  -->
<!DOCTYPE svg PUBLIC "-//W3C//DTD SVG 1.1//EN" "http://www.w3.org/Graphics/SVG/1.1/DTD/svg11.dtd" [
	<!ENTITY ns_flows "http://ns.adobe.com/Flows/1.0/">
]>
<svg version="1.1"
	 xmlns="http://www.w3.org/2000/svg" xmlns:xlink="http://www.w3.org/1999/xlink" xmlns:a="http://ns.adobe.com/AdobeSVGViewerExtensions/3.0/"
	 x="0px" y="0px" width="881px" height="820px" viewBox="0 0 881 820" style="enable-background:new 0 0 881 820;"
	 xml:space="preserve">
<defs>
</defs>
<path style="fill-rule:evenodd;clip-rule:evenodd;fill:#272536;" d="M773.5,683.2l55.8,136l-137.6-98.1
	c-26.8,7.7-54.3,11.6-81.8,11.6c-149.3,0-270.6-109.5-270.6-244c0-134.6,121.4-244,270.6-244c149.2,0,270.6,109.5,270.6,244
	C880.6,565.5,840.9,637.1,773.5,683.2L773.5,683.2z M610,279.9c-130.3,0-236.4,93.7-236.4,208.8c0,115.1,106,208.8,236.4,208.8
	c26.8,0,53.7-4.2,79.7-12.5l7.9-2.5l54.2,38.6l-21.5-52.2l12.9-7.8c64.5-39,103-103.5,103-172.3C846.4,373.6,740.3,279.9,610,279.9
	L610,279.9z M698,454.2c-18.9,0-34.3-15.8-34.3-35.2c0-19.5,15.3-35.2,34.3-35.2c18.9,0,34.2,15.8,34.2,35.2
	C732.2,438.5,716.9,454.2,698,454.2L698,454.2z M524.1,454.2c-18.9,0-34.3-15.8-34.3-35.2c0-19.5,15.4-35.2,34.3-35.2
	c18.9,0,34.2,15.8,34.2,35.2C558.4,438.5,543.1,454.2,524.1,454.2L524.1,454.2z M453.9,200.8c0,22.7-17.9,41.1-40,41.1
	c-22.1,0-40-18.4-40-41.1c0-22.7,17.9-41.1,40-41.1C436.1,159.8,453.9,178.2,453.9,200.8L453.9,200.8z M170.8,200.8
	c0-22.7,17.9-41.1,39.9-41.1c22.1,0,40,18.4,40,41.1c0,22.7-17.9,41.1-40,41.1C188.6,241.9,170.8,223.5,170.8,200.8L170.8,200.8z
	 M313.6,35.2c-154,0-279.3,110.9-279.3,247.2c0,81.6,45.6,157.9,121.8,204.2l12.9,7.8l-28,68.1l70.5-50.2l7.9,2.5
	c17.8,5.7,35.9,9.5,54.1,11.9c1.6,12.3,4.1,24.4,7.2,36.3c-21.3-2.1-42.5-6-63.4-12.1L63.5,660.5l62.4-151.8
	C46.8,455.4,0,371.8,0,282.4C0,126.7,140.7,0,313.6,0c130.5,0,242.6,72.3,289.8,174.6c-12.6,0.2-25.1,1.1-37.3,2.6
	C521.2,93.5,425.1,35.2,313.6,35.2L313.6,35.2z"/>
</svg>
